<ttFont>
    <TTGlyph name=".notdef" xMin="102" yMin="0" xMax="922" yMax="1462">
      <contour>
        <pt x="102" y="0" on="1"/>
        <pt x="102" y="1462" on="1"/>
        <pt x="922" y="1462" on="1"/>
        <pt x="922" y="0" on="1"/>
      </contour>
      <contour>
        <pt x="201" y="98" on="1"/>
        <pt x="823" y="98" on="1"/>
        <pt x="823" y="1364" on="1"/>
        <pt x="201" y="1364" on="1"/>
      </contour>
    </TTGlyph>
    <TTGlyph name="glyph00004" xMin="200" yMin="0" xMax="1150" yMax="1462">
      <contour>
        <pt x="384" y="1462" on="1"/>
        <pt x="1150" y="705" on="1"/>
        <pt x="1150" y="549" on="1"/>
        <pt x="384" y="549" on="1"/>
        <pt x="384" y="0" on="1"/>
        <pt x="200" y="0" on="1"/>
        <pt x="200" y="1462" on="1"/>
      </contour>
      <contour>
        <pt x="384" y="1235" on="1"/>
        <pt x="384" y="705" on="1"/>
        <pt x="921" y="705" on="1"/>
      </contour>
    </TTGlyph>
    <TTGlyph name="glyph00005" xMin="40" yMin="0" xMax="1361" yMax="1462">
      <contour>
        <pt x="773" y="1462" on="1"/>
        <pt x="1361" y="862" on="1"/>
        <pt x="1244" y="748" on="1"/>
        <pt x="793" y="1209" on="1"/>
        <pt x="793" y="0" on="1"/>
        <pt x="609" y="0" on="1"/>
        <pt x="609" y="1211" on="1"/>
        <pt x="157" y="748" on="1"/>
        <pt x="40" y="862" on="1"/>
        <pt x="628" y="1462" on="1"/>
      </contour>
    </TTGlyph>
    <TTGlyph name="glyph00006" xMin="200" yMin="0" xMax="1222" yMax="1462">
      <contour>
        <pt x="200" y="1462" on="1"/>
        <pt x="617" y="1462" on="1"/>
        <pt x="911" y="1462" on="0"/>
        <pt x="1172" y="1287" on="0"/>
        <pt x="1172" y="1100" on="1"/>
        <pt x="1172" y="970" on="0"/>
        <pt x="1030" y="801" on="0"/>
        <pt x="894" y="776" on="1"/>
        <pt x="894" y="766" on="1"/>
        <pt x="1063" y="737" on="0"/>
        <pt x="1222" y="561" on="0"/>
        <pt x="1222" y="416" on="1"/>
        <pt x="1222" y="220" on="0"/>
        <pt x="954" y="0" on="0"/>
        <pt x="714" y="0" on="1"/>
        <pt x="200" y="0" on="1"/>
      </contour>
      <contour>
        <pt x="384" y="841" on="1"/>
        <pt x="654" y="841" on="1"/>
        <pt x="828" y="841" on="0"/>
        <pt x="982" y="951" on="0"/>
        <pt x="982" y="1079" on="1"/>
        <pt x="982" y="1199" on="0"/>
        <pt x="811" y="1304" on="0"/>
        <pt x="626" y="1304" on="1"/>
        <pt x="384" y="1304" on="1"/>
      </contour>
      <contour>
        <pt x="384" y="158" on="1"/>
        <pt x="679" y="158" on="1"/>
        <pt x="853" y="158" on="0"/>
        <pt x="1025" y="292" on="0"/>
        <pt x="1025" y="430" on="1"/>
        <pt x="1025" y="559" on="0"/>
        <pt x="849" y="685" on="0"/>
        <pt x="665" y="685" on="1"/>
        <pt x="384" y="685" on="1"/>
      </contour>
    </TTGlyph>
    <TTGlyph name="glyph00007" xMin="200" yMin="0" xMax="1443" yMax="1474">
      <contour>
        <pt x="384" y="1462" on="1"/>
        <pt x="619" y="1052" on="1"/>
        <pt x="780" y="1373" on="1"/>
        <pt x="907" y="1373" on="1"/>
        <pt x="1068" y="1052" on="1"/>
        <pt x="1303" y="1474" on="1"/>
        <pt x="1443" y="1390" on="1"/>
        <pt x="1143" y="865" on="1"/>
        <pt x="989" y="865" on="1"/>
        <pt x="843" y="1154" on="1"/>
        <pt x="698" y="865" on="1"/>
        <pt x="544" y="865" on="1"/>
        <pt x="384" y="1145" on="1"/>
        <pt x="384" y="0" on="1"/>
        <pt x="200" y="0" on="1"/>
        <pt x="200" y="1462" on="1"/>
      </contour>
    </TTGlyph>
    <TTGlyph name="glyph00008" xMin="200" yMin="0" xMax="1059" yMax="1482">
      <contour>
        <pt x="200" y="0" on="1"/>
        <pt x="200" y="1462" on="1"/>
        <pt x="384" y="1462" on="1"/>
        <pt x="384" y="883" on="1"/>
        <pt x="940" y="1482" on="1"/>
        <pt x="1059" y="1372" on="1"/>
        <pt x="384" y="645" on="1"/>
        <pt x="384" y="0" on="1"/>
      </contour>
    </TTGlyph>
    <TTGlyph name="glyph00009" xMin="40" yMin="0" xMax="1188" yMax="1462">
      <contour>
        <pt x="40" y="113" on="1"/>
        <pt x="521" y="1462" on="1"/>
        <pt x="705" y="1462" on="1"/>
        <pt x="1188" y="111" on="1"/>
        <pt x="1188" y="0" on="1"/>
        <pt x="40" y="0" on="1"/>
      </contour>
      <contour>
        <pt x="611" y="1262" on="1"/>
        <pt x="564" y="1076" on="0"/>
        <pt x="512" y="932" on="1"/>
        <pt x="237" y="158" on="1"/>
        <pt x="985" y="158" on="1"/>
        <pt x="713" y="924" on="1"/>
        <pt x="644" y="1116" on="0"/>
      </contour>
    </TTGlyph>
    <TTGlyph name="glyph00010" xMin="200" yMin="0" xMax="1017" yMax="1462">
      <contour>
        <pt x="1017" y="0" on="1"/>
        <pt x="200" y="0" on="1"/>
        <pt x="200" y="1462" on="1"/>
        <pt x="1017" y="1462" on="1"/>
        <pt x="1017" y="1304" on="1"/>
        <pt x="384" y="1304" on="1"/>
        <pt x="384" y="841" on="1"/>
        <pt x="980" y="841" on="1"/>
        <pt x="980" y="685" on="1"/>
        <pt x="384" y="685" on="1"/>
        <pt x="384" y="158" on="1"/>
        <pt x="1017" y="158" on="1"/>
      </contour>
    </TTGlyph>
    <TTGlyph name="glyph00011" xMin="200" yMin="0" xMax="1017" yMax="1462">
      <contour>
        <pt x="384" y="0" on="1"/>
        <pt x="200" y="0" on="1"/>
        <pt x="200" y="1462" on="1"/>
        <pt x="1017" y="1462" on="1"/>
        <pt x="1017" y="1304" on="1"/>
        <pt x="384" y="1304" on="1"/>
        <pt x="384" y="781" on="1"/>
        <pt x="978" y="781" on="1"/>
        <pt x="978" y="625" on="1"/>
        <pt x="384" y="625" on="1"/>
      </contour>
    </TTGlyph>
    <TTGlyph name="glyph00012" xMin="100" yMin="0" xMax="1005" yMax="1462">
      <contour>
        <pt x="644" y="158" on="1"/>
        <pt x="1005" y="158" on="1"/>
        <pt x="1005" y="0" on="1"/>
        <pt x="100" y="0" on="1"/>
        <pt x="100" y="158" on="1"/>
        <pt x="460" y="158" on="1"/>
        <pt x="460" y="1304" on="1"/>
        <pt x="100" y="1304" on="1"/>
        <pt x="100" y="1462" on="1"/>
        <pt x="1005" y="1462" on="1"/>
        <pt x="1005" y="1304" on="1"/>
        <pt x="644" y="1304" on="1"/>
      </contour>
    </TTGlyph>
    <TTGlyph name="glyph00013" xMin="80" yMin="-20" xMax="1234" yMax="1482">
      <contour>
        <pt x="1234" y="1324" on="1"/>
        <pt x="1000" y="1257" on="0"/>
        <pt x="754" y="952" on="0"/>
        <pt x="754" y="728" on="1"/>
        <pt x="754" y="279" on="0"/>
        <pt x="1234" y="138" on="1"/>
        <pt x="1201" y="-20" on="1"/>
        <pt x="1018" y="20" on="0"/>
        <pt x="739" y="206" on="0"/>
        <pt x="657" y="346" on="1"/>
        <pt x="574" y="204" on="0"/>
        <pt x="292" y="19" on="0"/>
        <pt x="113" y="-20" on="1"/>
        <pt x="80" y="138" on="1"/>
        <pt x="560" y="279" on="0"/>
        <pt x="560" y="728" on="1"/>
        <pt x="560" y="952" on="0"/>
        <pt x="315" y="1257" on="0"/>
        <pt x="80" y="1324" on="1"/>
        <pt x="113" y="1482" on="1"/>
        <pt x="295" y="1443" on="0"/>
        <pt x="575" y="1257" on="0"/>
        <pt x="657" y="1114" on="1"/>
        <pt x="739" y="1257" on="0"/>
        <pt x="1019" y="1443" on="0"/>
        <pt x="1201" y="1482" on="1"/>
      </contour>
    </TTGlyph>
    <TTGlyph name="glyph00014" xMin="250" yMin="0" xMax="434" yMax="1462">
      <contour>
        <pt x="434" y="1462" on="1"/>
        <pt x="434" y="0" on="1"/>
        <pt x="250" y="0" on="1"/>
        <pt x="250" y="1462" on="1"/>
      </contour>
    </TTGlyph>
    <TTGlyph name="glyph00015" xMin="200" yMin="0" xMax="1005" yMax="1462">
      <contour>
        <pt x="200" y="0" on="1"/>
        <pt x="200" y="1462" on="1"/>
        <pt x="384" y="1462" on="1"/>
        <pt x="384" y="903" on="1"/>
        <pt x="906" y="1329" on="1"/>
        <pt x="1005" y="1201" on="1"/>
        <pt x="458" y="749" on="1"/>
        <pt x="1005" y="298" on="1"/>
        <pt x="906" y="170" on="1"/>
        <pt x="384" y="595" on="1"/>
        <pt x="384" y="0" on="1"/>
      </contour>
    </TTGlyph>
    <TTGlyph name="glyph00016" xMin="130" yMin="0" xMax="1356" yMax="1462">
      <contour>
        <pt x="266" y="1336" on="1"/>
        <pt x="651" y="951" on="1"/>
        <pt x="651" y="1462" on="1"/>
        <pt x="835" y="1462" on="1"/>
        <pt x="835" y="951" on="1"/>
        <pt x="1220" y="1336" on="1"/>
        <pt x="1340" y="1217" on="1"/>
        <pt x="862" y="739" on="1"/>
        <pt x="1356" y="246" on="1"/>
        <pt x="1237" y="126" on="1"/>
        <pt x="835" y="528" on="1"/>
        <pt x="835" y="0" on="1"/>
        <pt x="651" y="0" on="1"/>
        <pt x="651" y="528" on="1"/>
        <pt x="249" y="126" on="1"/>
        <pt x="130" y="246" on="1"/>
        <pt x="623" y="739" on="1"/>
        <pt x="146" y="1217" on="1"/>
      </contour>
    </TTGlyph>
    <TTGlyph name="glyph00017" xMin="30" yMin="0" xMax="1259" yMax="1462">
      <contour>
        <pt x="552" y="1462" on="1"/>
        <pt x="737" y="1462" on="1"/>
        <pt x="1259" y="0" on="1"/>
        <pt x="1064" y="0" on="1"/>
        <pt x="737" y="934" on="1"/>
        <pt x="669" y="1131" on="0"/>
        <pt x="644" y="1257" on="1"/>
        <pt x="615" y="1116" on="0"/>
        <pt x="552" y="938" on="1"/>
        <pt x="223" y="0" on="1"/>
        <pt x="30" y="0" on="1"/>
      </contour>
    </TTGlyph>
    <TTGlyph name="glyph00018" xMin="50" yMin="380" xMax="1705" yMax="1462">
      <contour>
        <pt x="439" y="1241" on="1"/>
        <pt x="417" y="1085" on="0"/>
        <pt x="369" y="893" on="1"/>
        <pt x="238" y="380" on="1"/>
        <pt x="50" y="380" on="1"/>
        <pt x="337" y="1462" on="1"/>
        <pt x="523" y="1462" on="1"/>
        <pt x="699" y="1064" on="0"/>
        <pt x="882" y="637" on="0"/>
        <pt x="892" y="595" on="1"/>
        <pt x="1228" y="1462" on="1"/>
        <pt x="1414" y="1462" on="1"/>
        <pt x="1705" y="380" on="1"/>
        <pt x="1518" y="380" on="1"/>
        <pt x="1385" y="891" on="1"/>
        <pt x="1330" y="1103" on="0"/>
        <pt x="1314" y="1241" on="1"/>
        <pt x="988" y="380" on="1"/>
        <pt x="798" y="380" on="1"/>
      </contour>
    </TTGlyph>
    <TTGlyph name="glyph00019" xMin="200" yMin="380" xMax="1305" yMax="1462">
      <contour>
        <pt x="1305" y="380" on="1"/>
        <pt x="1088" y="380" on="1"/>
        <pt x="375" y="1224" on="1"/>
        <pt x="367" y="1224" on="1"/>
        <pt x="384" y="1020" on="0"/>
        <pt x="384" y="817" on="1"/>
        <pt x="384" y="380" on="1"/>
        <pt x="200" y="380" on="1"/>
        <pt x="200" y="1462" on="1"/>
        <pt x="407" y="1462" on="1"/>
        <pt x="1127" y="603" on="1"/>
        <pt x="1135" y="603" on="1"/>
        <pt x="1133" y="627" on="0"/>
        <pt x="1119" y="958" on="0"/>
        <pt x="1121" y="1018" on="1"/>
        <pt x="1121" y="1462" on="1"/>
        <pt x="1305" y="1462" on="1"/>
      </contour>
    </TTGlyph>
    <TTGlyph name="glyph00020" xMin="10" yMin="0" xMax="1194" yMax="1462">
      <contour>
        <pt x="1194" y="0" on="1"/>
        <pt x="985" y="0" on="1"/>
        <pt x="598" y="635" on="1"/>
        <pt x="205" y="0" on="1"/>
        <pt x="10" y="0" on="1"/>
        <pt x="496" y="762" on="1"/>
        <pt x="41" y="1462" on="1"/>
        <pt x="246" y="1462" on="1"/>
        <pt x="604" y="889" on="1"/>
        <pt x="965" y="1462" on="1"/>
        <pt x="1159" y="1462" on="1"/>
        <pt x="707" y="766" on="1"/>
      </contour>
    </TTGlyph>
    <TTGlyph name="glyph00021" xMin="80" yMin="0" xMax="1174" yMax="1462">
      <contour>
        <pt x="1174" y="666" on="1"/>
        <pt x="719" y="666" on="1"/>
        <pt x="719" y="158" on="1"/>
        <pt x="1174" y="158" on="1"/>
        <pt x="1174" y="0" on="1"/>
        <pt x="80" y="0" on="1"/>
        <pt x="80" y="158" on="1"/>
        <pt x="535" y="158" on="1"/>
        <pt x="535" y="666" on="1"/>
        <pt x="80" y="666" on="1"/>
        <pt x="80" y="822" on="1"/>
        <pt x="535" y="822" on="1"/>
        <pt x="535" y="1304" on="1"/>
        <pt x="80" y="1304" on="1"/>
        <pt x="80" y="1462" on="1"/>
        <pt x="1174" y="1462" on="1"/>
        <pt x="1174" y="1304" on="1"/>
        <pt x="719" y="1304" on="1"/>
        <pt x="719" y="822" on="1"/>
        <pt x="1174" y="822" on="1"/>
      </contour>
    </TTGlyph>
    <TTGlyph name="glyph00022" xMin="125" yMin="-20" xMax="1475" yMax="1485">
      <contour>
        <pt x="1475" y="733" on="1"/>
        <pt x="1475" y="382" on="0"/>
        <pt x="1120" y="-20" on="0"/>
        <pt x="801" y="-20" on="1"/>
        <pt x="478" y="-20" on="0"/>
        <pt x="125" y="375" on="0"/>
        <pt x="125" y="735" on="1"/>
        <pt x="125" y="1092" on="0"/>
        <pt x="476" y="1485" on="0"/>
        <pt x="803" y="1485" on="1"/>
        <pt x="1121" y="1485" on="0"/>
        <pt x="1475" y="1086" on="0"/>
      </contour>
      <contour>
        <pt x="319" y="733" on="1"/>
        <pt x="319" y="443" on="0"/>
        <pt x="565" y="139" on="0"/>
        <pt x="801" y="139" on="1"/>
        <pt x="1036" y="139" on="0"/>
        <pt x="1280" y="439" on="0"/>
        <pt x="1280" y="733" on="1"/>
        <pt x="1280" y="1026" on="0"/>
        <pt x="1038" y="1323" on="0"/>
        <pt x="803" y="1323" on="1"/>
        <pt x="565" y="1323" on="0"/>
        <pt x="319" y="1022" on="0"/>
      </contour>
    </TTGlyph>
    <TTGlyph name="glyph00023" xMin="200" yMin="0" xMax="1166" yMax="1462">
      <contour>
        <pt x="414" y="1462" on="1"/>
        <pt x="628" y="1462" on="0"/>
        <pt x="973" y="1258" on="0"/>
        <pt x="1166" y="893" on="0"/>
        <pt x="1166" y="670" on="1"/>
        <pt x="1166" y="612" on="1"/>
        <pt x="982" y="612" on="1"/>
        <pt x="982" y="670" on="1"/>
        <pt x="982" y="850" on="0"/>
        <pt x="836" y="1142" on="0"/>
        <pt x="575" y="1304" on="0"/>
        <pt x="414" y="1304" on="1"/>
        <pt x="384" y="1304" on="1"/>
        <pt x="384" y="0" on="1"/>
        <pt x="200" y="0" on="1"/>
        <pt x="200" y="1462" on="1"/>
      </contour>
    </TTGlyph>
    <TTGlyph name="glyph00024" xMin="120" yMin="-15" xMax="1403" yMax="1477">
      <contour>
        <pt x="1403" y="683" on="1"/>
        <pt x="819" y="-15" on="1"/>
        <pt x="705" y="-15" on="1"/>
        <pt x="120" y="683" on="1"/>
        <pt x="120" y="779" on="1"/>
        <pt x="705" y="1477" on="1"/>
        <pt x="819" y="1477" on="1"/>
        <pt x="1403" y="779" on="1"/>
      </contour>
      <contour>
        <pt x="1218" y="732" on="1"/>
        <pt x="762" y="1278" on="1"/>
        <pt x="305" y="732" on="1"/>
        <pt x="762" y="182" on="1"/>
      </contour>
    </TTGlyph>
    <TTGlyph name="glyph00025" xMin="200" yMin="0" xMax="1139" yMax="1462">
      <contour>
        <pt x="587" y="1462" on="1"/>
        <pt x="859" y="1462" on="0"/>
        <pt x="1139" y="1239" on="0"/>
        <pt x="1139" y="1022" on="1"/>
        <pt x="1139" y="802" on="0"/>
        <pt x="834" y="569" on="0"/>
        <pt x="552" y="569" on="1"/>
        <pt x="384" y="569" on="1"/>
        <pt x="384" y="0" on="1"/>
        <pt x="200" y="0" on="1"/>
        <pt x="200" y="1462" on="1"/>
      </contour>
      <contour>
        <pt x="384" y="727" on="1"/>
        <pt x="531" y="727" on="1"/>
        <pt x="749" y="727" on="0"/>
        <pt x="945" y="868" on="0"/>
        <pt x="945" y="1024" on="1"/>
        <pt x="945" y="1165" on="0"/>
        <pt x="763" y="1304" on="0"/>
        <pt x="570" y="1304" on="1"/>
        <pt x="384" y="1304" on="1"/>
      </contour>
    </TTGlyph>
    <TTGlyph name="glyph00026" xMin="130" yMin="-33" xMax="746" yMax="1492">
      <contour>
        <pt x="746" y="1340" on="1"/>
        <pt x="502" y="1214" on="0"/>
        <pt x="348" y="1075" on="0"/>
        <pt x="348" y="1001" on="1"/>
        <pt x="348" y="953" on="0"/>
        <pt x="384" y="883" on="0"/>
        <pt x="447" y="827" on="0"/>
        <pt x="541" y="775" on="1"/>
        <pt x="625" y="728" on="0"/>
        <pt x="696" y="660" on="0"/>
        <pt x="734" y="574" on="0"/>
        <pt x="734" y="517" on="1"/>
        <pt x="734" y="369" on="0"/>
        <pt x="474" y="100" on="0"/>
        <pt x="214" y="-33" on="1"/>
        <pt x="130" y="123" on="1"/>
        <pt x="310" y="200" on="0"/>
        <pt x="540" y="410" on="0"/>
        <pt x="540" y="493" on="1"/>
        <pt x="540" y="534" on="0"/>
        <pt x="469" y="603" on="0"/>
        <pt x="347" y="675" on="1"/>
        <pt x="154" y="788" on="0"/>
        <pt x="154" y="978" on="1"/>
        <pt x="154" y="1269" on="0"/>
        <pt x="671" y="1492" on="1"/>
      </contour>
    </TTGlyph>
    <TTGlyph name="glyph00027" xMin="30" yMin="0" xMax="1126" yMax="1462">
      <contour>
        <pt x="671" y="0" on="1"/>
        <pt x="487" y="0" on="1"/>
        <pt x="487" y="1304" on="1"/>
        <pt x="30" y="1304" on="1"/>
        <pt x="30" y="1462" on="1"/>
        <pt x="1126" y="1462" on="1"/>
        <pt x="1126" y="1304" on="1"/>
        <pt x="671" y="1304" on="1"/>
      </contour>
    </TTGlyph>
    <TTGlyph name="glyph00028" xMin="100" yMin="0" xMax="1567" yMax="1482">
      <contour>
        <pt x="1567" y="1381" on="1"/>
        <pt x="1241" y="957" on="1"/>
        <pt x="1087" y="957" on="1"/>
        <pt x="834" y="1287" on="1"/>
        <pt x="581" y="957" on="1"/>
        <pt x="427" y="957" on="1"/>
        <pt x="100" y="1382" on="1"/>
        <pt x="227" y="1482" on="1"/>
        <pt x="501" y="1124" on="1"/>
        <pt x="762" y="1462" on="1"/>
        <pt x="903" y="1462" on="1"/>
        <pt x="1166" y="1124" on="1"/>
        <pt x="1440" y="1482" on="1"/>
      </contour>
      <contour>
        <pt x="926" y="987" on="1"/>
        <pt x="926" y="0" on="1"/>
        <pt x="742" y="0" on="1"/>
        <pt x="742" y="987" on="1"/>
      </contour>
    </TTGlyph>
    <TTGlyph name="glyph00029" xMin="30" yMin="0" xMax="1259" yMax="1462">
      <contour>
        <pt x="30" y="1462" on="1"/>
        <pt x="218" y="1462" on="1"/>
        <pt x="547" y="524" on="1"/>
        <pt x="619" y="318" on="0"/>
        <pt x="644" y="200" on="1"/>
        <pt x="669" y="323" on="0"/>
        <pt x="739" y="519" on="1"/>
        <pt x="402" y="1462" on="1"/>
        <pt x="550" y="1462" on="1"/>
        <pt x="810" y="721" on="1"/>
        <pt x="907" y="999" on="1"/>
        <pt x="742" y="1462" on="1"/>
        <pt x="890" y="1462" on="1"/>
        <pt x="979" y="1206" on="1"/>
        <pt x="1069" y="1462" on="1"/>
        <pt x="1259" y="1462" on="1"/>
        <pt x="737" y="0" on="1"/>
        <pt x="552" y="0" on="1"/>
      </contour>
    </TTGlyph>
    <TTGlyph name="glyph00030" xMin="100" yMin="0" xMax="1629" yMax="1492">
      <contour>
        <pt x="1120" y="1364" on="1"/>
        <pt x="1003" y="1279" on="1"/>
        <pt x="1228" y="1117" on="1"/>
        <pt x="1502" y="1482" on="1"/>
        <pt x="1629" y="1384" on="1"/>
        <pt x="1299" y="957" on="1"/>
        <pt x="1165" y="957" on="1"/>
        <pt x="864" y="1177" on="1"/>
        <pt x="564" y="957" on="1"/>
        <pt x="430" y="957" on="1"/>
        <pt x="100" y="1384" on="1"/>
        <pt x="227" y="1482" on="1"/>
        <pt x="501" y="1117" on="1"/>
        <pt x="725" y="1279" on="1"/>
        <pt x="609" y="1364" on="1"/>
        <pt x="708" y="1492" on="1"/>
        <pt x="864" y="1379" on="1"/>
        <pt x="1021" y="1492" on="1"/>
      </contour>
      <contour>
        <pt x="957" y="987" on="1"/>
        <pt x="957" y="0" on="1"/>
        <pt x="773" y="0" on="1"/>
        <pt x="773" y="987" on="1"/>
      </contour>
    </TTGlyph>
    <TTGlyph name="glyph00031" xMin="80" yMin="0" xMax="1174" yMax="1462">
      <contour>
        <pt x="1174" y="666" on="1"/>
        <pt x="719" y="666" on="1"/>
        <pt x="719" y="0" on="1"/>
        <pt x="535" y="0" on="1"/>
        <pt x="535" y="666" on="1"/>
        <pt x="80" y="666" on="1"/>
        <pt x="80" y="822" on="1"/>
        <pt x="535" y="822" on="1"/>
        <pt x="535" y="1462" on="1"/>
        <pt x="719" y="1462" on="1"/>
        <pt x="719" y="822" on="1"/>
        <pt x="1174" y="822" on="1"/>
      </contour>
    </TTGlyph>
    <TTGlyph name="glyph00032" xMin="30" yMin="0" xMax="1259" yMax="1462">
      <contour>
        <pt x="724" y="1462" on="1"/>
        <pt x="724" y="333" on="1"/>
        <pt x="750" y="473" on="0"/>
        <pt x="794" y="611" on="1"/>
        <pt x="1064" y="1462" on="1"/>
        <pt x="1259" y="1462" on="1"/>
        <pt x="742" y="0" on="1"/>
        <pt x="547" y="0" on="1"/>
        <pt x="30" y="1462" on="1"/>
        <pt x="223" y="1462" on="1"/>
        <pt x="491" y="612" on="1"/>
        <pt x="520" y="515" on="0"/>
        <pt x="560" y="338" on="1"/>
        <pt x="560" y="1462" on="1"/>
      </contour>
    </TTGlyph>
</ttFont>
